# xmcd CD database file
#
# Track frame offsets:
#	150
#	12675
#	26200
#	40900
#	54837
#	68275
#	83200
#	98625
#	112100
#	127262
#	140550
#	155925
#
# Disc length: 2249 seconds
#
# Revision: 1
# Processed by: cddbd v1.5.1PL0 Copyright (c) Steve Scherf et al.
# Submitted via: CDex 1.51
#
DISCID=a808c70c
DTITLE=Stan Getz - Stan Getz Plays
DYEAR=1952
DGENRE=Jazz
TTITLE0=Stella By Starlight
TTITLE1=Time On My Hands
TTITLE2='Tis Autumn
TTITLE3=The Way You Look Tonight
TTITLE4=Lover Come Back To Me
TTITLE5=Body And Soul
TTITLE6=Stars Fell On Alabama
TTITLE7=You Turned The Tables On Me
TTITLE8=Thanks For The Memory
TTITLE9=Hymn Of The Orient
TTITLE10=These Foolish Things (Remind Me Of You)
TTITLE11=How Deep Is The Ocean
EXTD=YEAR: 1952
EXTT0=
EXTT1=
EXTT2=
EXTT3=
EXTT4=
EXTT5=
EXTT6=
EXTT7=
EXTT8=
EXTT9=
EXTT10=
EXTT11=
PLAYORDER=
